HIERARCHY
ROOT hip
{
	OFFSET 0.000000 0.000000 0.000000 
	CHANNELS 6 Xposition Yposition Zposition Xrotation Zrotation Yrotation
	JOINT abdomen
	{
		OFFSET 0.000000 3.402643 0.000000 
		CHANNELS 3 Xrotation Zrotation Yrotation
		JOINT chest
		{
			OFFSET 0.000000 8.438565 -0.680529 
			CHANNELS 3 Xrotation Zrotation Yrotation
			JOINT neck
			{
				OFFSET 0.000000 10.207942 -0.272212 
				CHANNELS 3 Xrotation Zrotation Yrotation
				JOINT head
				{
					OFFSET 0.000000 3.130431 0.000000 
					CHANNELS 3 Xrotation Zrotation Yrotation
					End Site
					{
						OFFSET 0.000000 3.130435 0.000000 
					}
				}
			}
			JOINT lCollar
			{
				OFFSET 3.470700 6.669187 -0.816635 
				CHANNELS 3 Yrotation Zrotation Xrotation
				JOINT lShldr
				{
					OFFSET 3.198488 0.000000 0.000000 
					CHANNELS 3 Zrotation Yrotation Xrotation
					JOINT lForeArm
					{
						OFFSET 10.139888 0.000000 0.000000 
						CHANNELS 3 Yrotation Zrotation Xrotation
						JOINT lHand
						{
							OFFSET 8.370511 0.000000 0.000000 
							CHANNELS 3 Zrotation Yrotation Xrotation
							End Site
							{
								OFFSET 4.083176 0.000000 0.000000 
							}
						}
					}
				}
			}
			JOINT rCollar
			{
				OFFSET -3.470700 6.669187 -0.816635 
				CHANNELS 3 Yrotation Zrotation Xrotation
				JOINT rShldr
				{
					OFFSET -3.198488 0.000000 0.000000 
					CHANNELS 3 Zrotation Yrotation Xrotation
					JOINT rForeArm
					{
						OFFSET -10.139888 0.000000 0.000000 
						CHANNELS 3 Yrotation Zrotation Xrotation
						JOINT rHand
						{
							OFFSET -8.370511 0.000000 0.000000 
							CHANNELS 3 Zrotation Yrotation Xrotation
							End Site
							{
								OFFSET -4.083176 0.000000 0.000000 
							}
						}
					}
				}
			}
		}
	}
	JOINT lThigh
	{
		OFFSET 5.308129 -1.633274 1.361059 
		CHANNELS 3 Xrotation Zrotation Yrotation
		JOINT lShin
		{
			OFFSET -2.041588 -20.007561 0.000000 
			CHANNELS 3 Xrotation Zrotation Yrotation
			JOINT lFoot
			{
				OFFSET 0.000000 -19.190928 -1.224953 
				CHANNELS 3 Xrotation Yrotation Zrotation
				End Site
				{
					OFFSET 0.000000 -2.449906 4.627600 
				}
			}
		}
	}
	JOINT rThigh
	{
		OFFSET -5.308129 -1.633274 1.361059 
		CHANNELS 3 Xrotation Zrotation Yrotation
		JOINT rShin
		{
			OFFSET 2.041588 -20.007561 0.000000 
			CHANNELS 3 Xrotation Zrotation Yrotation
			JOINT rFoot
			{
				OFFSET 0.000000 -19.190928 -1.224953 
				CHANNELS 3 Xrotation Yrotation Zrotation
				End Site
				{
					OFFSET 0.000000 -2.449906 4.627600 
				}
			}
		}
	}
}
MOTION
Frames: 11
Frame Time: 0.033333
19.455610 43.393024 36.135353 -6.425849 -3.163634 -29.097012 -25.449215 0.000000 0.000000 39.272934 3.056390 -0.771940 5.755077 -12.852167 26.126245 -16.210079 4.634636 23.126080 -6.078691 -15.121412 12.447767 -54.195370 -36.818771 18.730541 -68.607185 0.136177 -21.470045 13.243308 -30.969000 -3.700393 16.527189 8.255471 21.560696 65.229446 58.079433 52.404980 29.324940 -4.743582 -38.660080 -27.443800 48.535980 -12.116728 -23.847580 18.749968 6.245584 28.770117 1.586426 7.687755 5.532257 -0.209119 -13.732755 -8.056083 -17.447165 -12.589354 48.336605 3.240899 -15.782214 -24.423292 -4.073451 14.298867 
19.634092 43.268127 36.308628 -6.366405 -3.037826 -29.710524 -25.449215 0.000000 0.000000 39.310928 2.827856 -0.491164 7.638376 -12.858765 26.089464 -16.111063 4.548910 23.400867 -5.631720 -15.389540 11.868313 -53.716312 -35.644039 17.805744 -69.444786 -0.113015 -23.064526 9.923201 -30.496706 -2.626169 16.200485 8.428362 21.020992 67.852654 58.275925 56.227802 28.219828 -3.882056 -40.564365 -26.001358 47.934921 -11.286757 -24.550177 18.944756 6.651908 30.001497 1.688607 8.041011 5.190406 -0.165057 -13.898321 -8.777275 -18.047863 -13.552313 49.105183 2.146477 -14.147906 -24.932592 -4.238236 14.709641 
19.781939 43.089523 36.495773 -6.208957 -2.863989 -30.265112 -25.449215 0.000000 0.000000 39.280697 2.805959 -0.510647 9.084414 -13.294973 26.423374 -16.060381 5.187092 23.720232 -4.925194 -15.509307 11.469706 -53.180412 -34.214115 16.481661 -71.304565 -0.478460 -24.361681 7.812614 -28.761063 -1.885449 15.832644 8.442570 21.244635 70.391472 58.550171 59.035477 28.567675 -3.148545 -42.097958 -24.853107 47.252419 -10.616910 -25.623161 19.324450 7.033981 31.537085 1.893410 8.805923 5.130927 -0.181645 -14.419085 -9.716444 -18.757992 -14.199093 50.241985 1.278812 -12.738581 -25.565619 -4.417964 14.965402 
19.939180 42.917431 36.661442 -5.835254 -2.409340 -30.545076 -25.449215 0.000000 0.000000 39.007065 2.813136 -0.519464 10.258974 -13.585981 26.643864 -16.190411 5.368824 24.032679 -4.481645 -15.478561 11.050991 -52.875984 -33.438065 16.355999 -71.830452 -0.531930 -26.339668 6.436246 -27.550941 -1.444488 16.076122 8.842269 21.892307 70.684944 58.510139 59.595058 28.789955 -2.865442 -43.823891 -23.717066 46.238621 -9.885928 -27.270874 19.605396 6.960763 33.339077 1.644545 9.704368 5.012038 -0.193470 -14.695415 -11.053712 -19.780613 -14.553485 51.629292 0.780861 -11.503809 -26.147108 -4.553272 15.225368 
20.014570 42.729061 36.871937 -5.668579 -2.283711 -30.515749 -25.449215 0.000000 0.000000 39.000923 2.629915 0.064536 10.978308 -13.300727 26.876774 -16.215033 5.020834 24.541473 -4.204968 -15.453377 10.721781 -52.831352 -34.268650 17.713209 -70.602448 -0.090278 -24.677992 5.672976 -26.198469 -1.175904 16.190554 9.834262 21.725529 70.370857 57.384258 57.923756 27.614897 -2.419191 -44.716343 -23.593708 45.905636 -9.778487 -28.698830 20.076101 7.101464 35.531120 1.522125 9.841637 4.396769 -0.118186 -14.957627 -11.560897 -20.667681 -15.351928 52.782497 0.343643 -10.140053 -26.727789 -4.652600 15.303133 
20.049313 42.541508 37.177273 -5.717923 -2.400122 -29.857615 -25.449215 0.000000 0.000000 39.269955 2.660651 0.435385 10.615127 -12.882829 27.386274 -15.444518 4.517811 25.216717 -4.120084 -14.545965 10.125835 -53.240189 -34.239738 19.802418 -69.771820 0.179847 -20.830944 5.294599 -24.931124 -1.044524 15.989794 10.358464 21.138231 65.995216 56.942150 52.441685 26.666124 -2.988671 -46.863972 -20.039436 45.763691 -8.217147 -30.034319 20.103563 6.813237 37.998009 1.662873 9.835872 3.457160 -0.008843 -15.307364 -11.005261 -21.499865 -16.783976 53.357304 -0.195599 -9.097293 -27.213911 -4.794695 15.625252 
20.018393 42.366566 37.596764 -5.612046 -2.769884 -28.302469 -25.449215 0.000000 0.000000 38.723698 2.942850 0.653040 10.648052 -13.489330 27.624229 -15.953046 5.227178 25.179359 -4.089021 -13.921673 9.186707 -52.341900 -32.139637 22.004902 -68.197838 0.532837 -17.876015 3.347463 -25.006899 -0.549408 15.930571 10.256969 20.293282 53.007233 56.325138 38.770180 26.347685 -5.456425 -51.623268 -15.900868 42.527618 -5.961652 -31.776543 19.882196 5.989947 40.912045 1.970827 9.261031 1.932967 0.191588 -15.467891 -9.423635 -21.958763 -19.139067 53.391956 -0.899365 -8.201701 -27.559126 -5.055070 16.347149 
19.953012 42.393826 37.966743 -4.988081 -3.161833 -26.423817 -25.449215 0.000000 0.000000 37.677032 2.638248 0.565685 9.708555 -12.596804 27.810207 -16.691389 4.725029 25.502878 -3.696985 -13.552058 7.809833 -49.757904 -27.896252 22.570133 -67.700699 0.649977 -14.820018 0.468037 -25.567499 0.200600 14.269275 8.394849 18.097013 36.424381 53.179325 20.868349 27.454268 -9.117995 -54.472210 -11.944561 37.939541 -3.929331 -33.289490 19.325233 4.520276 42.357838 2.188649 8.789356 0.868218 0.334324 -15.270339 -7.412350 -21.798853 -21.031483 52.121342 -0.562377 -8.218731 -27.326166 -5.150216 16.854681 
20.012007 42.453632 38.560894 -4.756337 -3.756588 -24.853708 -25.449215 0.000000 0.000000 37.269814 2.260075 1.346862 7.896062 -12.760544 27.611025 -17.822451 4.324743 25.117641 -3.626015 -13.116938 6.572150 -48.558109 -21.793365 20.734428 -66.381615 1.116024 -6.987677 3.532797 -27.613560 -0.655903 11.635229 4.007901 13.891792 20.722364 48.947048 7.119875 23.515669 -9.312142 -57.404190 -10.306237 35.783825 -3.170979 -33.874969 18.270315 4.052977 43.895931 3.200391 8.248716 -0.708046 0.542282 -15.109041 -4.531830 -21.356182 -22.659124 49.832150 -0.668964 -8.469227 -26.406414 -5.356266 18.170906 
20.136375 42.675766 39.388851 -4.268294 -4.012315 -23.079750 -25.449215 0.000000 0.000000 36.520275 1.830534 2.666693 5.216183 -14.031719 27.905207 -17.576622 3.423888 25.080839 -3.265513 -13.833885 4.885503 -46.617779 -14.406507 18.546242 -64.017189 1.818103 -3.755027 1.238425 -29.209850 0.004558 6.764088 -3.737012 7.753378 13.081233 43.266331 -0.409664 20.441790 -9.998294 -54.686779 -9.068493 31.890051 -2.499711 -34.026062 16.724701 2.812842 44.795330 3.376666 8.520836 -2.424282 0.766681 -14.613786 -0.881300 -20.755287 -25.018236 45.952946 -1.216446 -8.641168 -24.483047 -5.399680 19.727268 
20.355177 43.180653 40.614944 -3.455680 -3.996650 -21.155926 -25.449215 0.000000 0.000000 34.844254 1.401118 3.581422 3.711469 -16.673899 27.921053 -17.717798 2.855167 24.519047 -2.754178 -14.312749 1.983140 -45.723007 -4.202202 15.981471 -60.730366 2.926144 -0.481905 1.495595 -30.449875 -0.088755 0.159258 -11.871287 -0.718906 9.690785 37.659241 -1.940044 18.866198 -9.541802 -48.177296 -10.108205 29.849953 -2.648561 -32.855091 14.762527 2.464288 44.194702 3.434921 8.550326 -4.361753 0.973875 -13.571411 3.444665 -19.635273 -26.890072 40.081753 -1.890595 -9.896741 -19.617809 -4.642639 20.767342 
